<svg width="23" height="16" viewBox="0 0 23 16" fill="none" xmlns="http://www.w3.org/2000/svg">
<path d="M20.125 12C20.125 12.1516 20.0644 12.2969 19.9566 12.4041C19.8488 12.5112 19.7025 12.5714 19.55 12.5714C19.3975 12.5714 19.2512 12.5112 19.1434 12.4041C19.0356 12.2969 18.975 12.1516 18.975 12V4C18.975 1.79429 16.5945 0 14.375 0H4.6C3.38 0 2.20998 0.481631 1.34731 1.33894C0.484642 2.19625 0 3.35901 0 4.57143V16H4.6V11.4286H10.35V16H14.95V10.8571C14.95 10.7056 15.0106 10.5602 15.1184 10.4531C15.2262 10.3459 15.3725 10.2857 15.525 10.2857C15.6775 10.2857 15.8238 10.3459 15.9316 10.4531C16.0394 10.5602 16.1 10.7056 16.1 10.8571V12.5714C16.1 13.4807 16.4635 14.3528 17.1105 14.9958C17.7575 15.6388 18.635 16 19.55 16C20.465 16 21.3425 15.6388 21.9895 14.9958C22.6365 14.3528 23 13.4807 23 12.5714V10.2857H20.125V12Z" fill="#B4B4C4"/>
</svg>
