<svg width="46" height="30" viewBox="0 0 46 30" fill="none" xmlns="http://www.w3.org/2000/svg">
<path d="M36.1613 10.4677C35.0955 10.4677 34.0868 10.6771 33.1352 11.0006L27.5206 0H20.9355V2.85484H25.7697L27.4445 6.12839L22.8387 16.4248L19.47 8.46935C19.9839 8.27903 20.4406 7.76516 20.4406 7.1371C20.4406 6.35677 19.8126 5.70968 19.0323 5.70968H15.2258C14.4265 5.70968 13.7794 6.35677 13.7794 7.1371C13.7794 7.91742 14.4265 8.56452 15.2258 8.56452H16.3868L20.669 18.5565H18.88C18.1948 13.9887 14.2742 10.4677 9.51613 10.4677C4.26323 10.4677 0 14.731 0 19.9839C0 25.2368 4.26323 29.5 9.51613 29.5C14.2742 29.5 18.1948 25.979 18.88 21.4113H23.7903L29.1003 9.3829L30.6039 12.2948C28.2058 14.0268 26.6452 16.8245 26.6452 19.9839C26.6452 25.2368 30.9084 29.5 36.1613 29.5C41.4142 29.5 45.6774 25.2368 45.6774 19.9839C45.6774 14.731 41.4142 10.4677 36.1613 10.4677ZM9.51613 26.6452C5.8429 26.6452 2.85484 23.6571 2.85484 19.9839C2.85484 16.3106 5.8429 13.3226 9.51613 13.3226C12.6945 13.3226 15.359 15.5684 16.0061 18.5565H7.6129V21.4113H16.0061C15.359 24.3994 12.6945 26.6452 9.51613 26.6452ZM36.1613 26.6452C32.4881 26.6452 29.5 23.6571 29.5 19.9839C29.5 17.9284 30.4516 16.1203 31.9171 14.9023L35.3429 21.6016L37.8552 20.2313L34.4484 13.57C35.0003 13.4368 35.5713 13.3226 36.1613 13.3226C39.8345 13.3226 42.8226 16.3106 42.8226 19.9839C42.8226 23.6571 39.8345 26.6452 36.1613 26.6452Z" fill="#2BC5CB"/>
</svg>
