<svg width="31" height="34" viewBox="0 0 31 34" fill="none" xmlns="http://www.w3.org/2000/svg">
<path d="M31 24.65C31 25.296 30.6383 25.857 30.0872 26.146L16.4817 33.694C16.2061 33.898 15.8617 34 15.5 34C15.1383 34 14.7939 33.898 14.5183 33.694L0.912778 26.146C0.361667 25.857 0 25.296 0 24.65V9.35C0 8.704 0.361667 8.143 0.912778 7.854L14.5183 0.306C14.7939 0.102 15.1383 0 15.5 0C15.8617 0 16.2061 0.102 16.4817 0.306L30.0872 7.854C30.6383 8.143 31 8.704 31 9.35V24.65ZM15.5 3.655L12.245 5.474L22.3889 11.237L25.7644 9.35L15.5 3.655ZM5.23556 9.35L15.5 15.045L18.8756 13.175L8.74889 7.395L5.23556 9.35ZM3.44444 23.647L13.7778 29.393V17.986L3.44444 12.257V23.647ZM27.5556 23.647V12.257L17.2222 17.986V29.393L27.5556 23.647Z" fill="#FFA43C"/>
</svg>
