<svg width="23" height="22" viewBox="0 0 23 22" fill="none" xmlns="http://www.w3.org/2000/svg">
<path d="M18.4 0C17.365 0 16.1 1.1 16.1 2.2H6.9C6.9 1.1 5.635 0 4.6 0H0V9.9C0 11 1.15 12.1 2.3 12.1H4.83C5.29 14.3 6.785 16.17 10.35 16.5V18.788C6.9 19.294 6.9 22 6.9 22H16.1C16.1 22 16.1 19.294 12.65 18.788V16.5C16.215 16.17 17.71 14.3 18.17 12.1H20.7C21.85 12.1 23 11 23 9.9V0H18.4ZM4.6 9.9H2.3V2.2H4.6V9.9ZM16.1 10.45C16.1 12.573 15.433 14.3 11.5 14.3C7.5785 14.3 6.9 12.573 6.9 10.45V4.4H16.1V10.45ZM20.7 9.9H18.4V2.2H20.7V9.9Z" fill="#B4B4C4"/>
</svg>
