<svg width="27" height="19" viewBox="0 0 27 19" fill="none" xmlns="http://www.w3.org/2000/svg">
<path d="M13.5 19L14.526 15.2C10.125 14.934 6.1965 13.1733 5.0625 10.868C4.941 11.476 4.7655 12.0333 4.4955 12.4513C3.6045 13.9333 1.7955 13.9333 0 13.9333C1.485 13.9333 2.025 11.9447 2.025 9.5C2.025 7.05533 1.485 5.06667 0 5.06667C1.7955 5.06667 3.6045 5.06667 4.4955 6.54867C4.7655 6.96667 4.941 7.524 5.0625 8.132C5.94 6.33333 8.532 4.87667 11.691 4.20533L9.45 0C12.15 0 14.85 7.54992e-08 16.6455 0.848667C18.171 1.558 19.0485 2.87533 19.8315 4.28133C23.7735 5.168 27 7.16933 27 9.5C27 11.8813 23.625 13.9333 19.575 14.7693C18.4545 16.1627 17.361 17.4547 16.4295 18.1513C15.2955 19 14.4045 19 13.5 19ZM20.25 7.6C19.892 7.6 19.5486 7.73345 19.2954 7.971C19.0422 8.20854 18.9 8.53073 18.9 8.86667C18.9 9.20261 19.0422 9.52479 19.2954 9.76233C19.5486 9.99988 19.892 10.1333 20.25 10.1333C20.608 10.1333 20.9514 9.99988 21.2046 9.76233C21.4578 9.52479 21.6 9.20261 21.6 8.86667C21.6 8.53073 21.4578 8.20854 21.2046 7.971C20.9514 7.73345 20.608 7.6 20.25 7.6Z" fill="#B4B4C4"/>
</svg>
