<svg width="23" height="20" viewBox="0 0 23 20" fill="none" xmlns="http://www.w3.org/2000/svg">
<path d="M7.31961 0.0167003C8.67108 -0.172028 10.1027 1.26009 10.515 3.23619C10.9273 5.20119 10.1829 6.95525 8.83142 7.15508C7.4914 7.35491 6.04831 5.9228 5.62454 3.9467C5.20078 1.9817 5.96814 0.227632 7.31961 0.0167003ZM15.5086 0.0167003C16.8715 0.227632 17.6274 1.9817 17.2266 3.9467C16.7913 5.9228 15.3597 7.35491 14.0082 7.15508C12.6453 6.95525 11.9009 5.20119 12.3246 3.23619C12.7369 1.26009 14.1686 -0.172028 15.5086 0.0167003ZM1.19218 5.12347C2.49784 4.57949 4.27307 5.56754 5.20078 7.2883C6.07122 9.04237 5.77343 10.8852 4.47923 11.4292C3.18503 11.9732 1.42124 10.9963 0.516447 9.2533C-0.38835 7.51034 -0.0676628 5.65635 1.19218 5.12347ZM21.8078 5.12347C23.0677 5.65635 23.3884 7.51034 22.4836 9.2533C21.5788 10.9963 19.815 11.9732 18.5208 11.4292C17.2266 10.8852 16.9288 9.04237 17.7992 7.2883C18.7269 5.56754 20.5022 4.57949 21.8078 5.12347ZM19.8951 17.0911C19.941 18.1346 19.1163 19.2892 18.1314 19.7222C16.0813 20.6325 13.6532 18.7452 11.374 18.7452C9.09484 18.7452 6.64387 20.7102 4.62812 19.7222C3.48281 19.1782 2.69254 17.735 2.84143 16.536C3.04759 14.8819 5.0977 13.9937 6.31173 12.7836C7.92662 11.2183 9.07194 8.27635 11.374 8.27635C13.6646 8.27635 14.8787 11.1739 16.4248 12.7836C17.6961 14.138 19.815 15.2815 19.8951 17.0911Z" fill="#B4B4C4"/>
</svg>
