<svg width="33" height="30" viewBox="0 0 33 30" fill="none" xmlns="http://www.w3.org/2000/svg">
<path d="M10.164 0L7.8375 2.3265L12.111 6.6H3.3C1.4685 6.6 0 8.0685 0 9.9V26.4C0 28.2315 1.4685 29.7 3.3 29.7H29.7C31.5315 29.7 33 28.2315 33 26.4V9.9C33 8.0685 31.5315 6.6 29.7 6.6H20.889L25.1625 2.3265L22.836 0L16.5 6.336L10.164 0ZM3.3 9.9H24.75V26.4H3.3V9.9ZM28.875 9.9C29.3126 9.9 29.7323 10.0738 30.0417 10.3833C30.3512 10.6927 30.525 11.1124 30.525 11.55C30.525 11.9876 30.3512 12.4073 30.0417 12.7167C29.7323 13.0262 29.3126 13.2 28.875 13.2C28.4374 13.2 28.0177 13.0262 27.7083 12.7167C27.3988 12.4073 27.225 11.9876 27.225 11.55C27.225 11.1124 27.3988 10.6927 27.7083 10.3833C28.0177 10.0738 28.4374 9.9 28.875 9.9ZM28.875 14.85C29.3126 14.85 29.7323 15.0238 30.0417 15.3333C30.3512 15.6427 30.525 16.0624 30.525 16.5C30.525 16.9376 30.3512 17.3573 30.0417 17.6667C29.7323 17.9762 29.3126 18.15 28.875 18.15C28.4374 18.15 28.0177 17.9762 27.7083 17.6667C27.3988 17.3573 27.225 16.9376 27.225 16.5C27.225 16.0624 27.3988 15.6427 27.7083 15.3333C28.0177 15.0238 28.4374 14.85 28.875 14.85Z" fill="#2BC5CB"/>
</svg>
